<mxfile host="app.diagrams.net" agent="Mozilla/5.0 (Windows NT 10.0; Win64; x64) AppleWebKit/537.36 (KHTML, like Gecko) Chrome/131.0.0.0 Safari/537.36" version="24.9.1">
  <diagram name="Page-1" id="4acRng5W_u0_4KzXaihT">
    <mxGraphModel dx="1687" dy="908" grid="1" gridSize="10" guides="1" tooltips="1" connect="1" arrows="1" fold="1" page="1" pageScale="1" pageWidth="827" pageHeight="1169" math="0" shadow="0">
      <root>
        <mxCell id="0" />
        <mxCell id="1" parent="0" />
        <mxCell id="bDkOoxNmA_hYLUBz5Huy-1" value="Max_Frequency" style="rounded=1;whiteSpace=wrap;html=1;fillColor=#f8cecc;strokeColor=#b85450;" vertex="1" parent="1">
          <mxGeometry x="394" y="545" width="150" height="80" as="geometry" />
        </mxCell>
        <mxCell id="bDkOoxNmA_hYLUBz5Huy-2" value="" style="shape=flexArrow;endArrow=classic;html=1;rounded=0;fillColor=#dae8fc;strokeColor=#6c8ebf;" edge="1" parent="1">
          <mxGeometry width="50" height="50" relative="1" as="geometry">
            <mxPoint x="144" y="565" as="sourcePoint" />
            <mxPoint x="394" y="565" as="targetPoint" />
          </mxGeometry>
        </mxCell>
        <mxCell id="bDkOoxNmA_hYLUBz5Huy-6" value="int Sample_Rate" style="edgeLabel;html=1;align=center;verticalAlign=middle;resizable=0;points=[];" vertex="1" connectable="0" parent="bDkOoxNmA_hYLUBz5Huy-2">
          <mxGeometry x="0.4892" y="-5" relative="1" as="geometry">
            <mxPoint x="-69" y="-18" as="offset" />
          </mxGeometry>
        </mxCell>
        <mxCell id="bDkOoxNmA_hYLUBz5Huy-3" value="" style="shape=flexArrow;endArrow=classic;html=1;rounded=0;fillColor=#ffe6cc;strokeColor=#d79b00;" edge="1" parent="1">
          <mxGeometry width="50" height="50" relative="1" as="geometry">
            <mxPoint x="544" y="584.73" as="sourcePoint" />
            <mxPoint x="684" y="585" as="targetPoint" />
          </mxGeometry>
        </mxCell>
        <mxCell id="bDkOoxNmA_hYLUBz5Huy-11" value="float32_t Freq_Max" style="edgeLabel;html=1;align=center;verticalAlign=middle;resizable=0;points=[];" vertex="1" connectable="0" parent="bDkOoxNmA_hYLUBz5Huy-3">
          <mxGeometry x="-0.4672" y="-4" relative="1" as="geometry">
            <mxPoint x="25" y="-18" as="offset" />
          </mxGeometry>
        </mxCell>
        <mxCell id="bDkOoxNmA_hYLUBz5Huy-4" value="" style="shape=flexArrow;endArrow=classic;html=1;rounded=0;fillColor=#dae8fc;strokeColor=#6c8ebf;" edge="1" parent="1">
          <mxGeometry width="50" height="50" relative="1" as="geometry">
            <mxPoint x="144" y="605" as="sourcePoint" />
            <mxPoint x="394" y="605" as="targetPoint" />
          </mxGeometry>
        </mxCell>
        <mxCell id="bDkOoxNmA_hYLUBz5Huy-10" value="float32_t Audio_Buffer[Audio_Buffer_Size]" style="edgeLabel;html=1;align=center;verticalAlign=middle;resizable=0;points=[];" vertex="1" connectable="0" parent="bDkOoxNmA_hYLUBz5Huy-4">
          <mxGeometry x="-0.0535" y="3" relative="1" as="geometry">
            <mxPoint x="-3" y="-10" as="offset" />
          </mxGeometry>
        </mxCell>
      </root>
    </mxGraphModel>
  </diagram>
</mxfile>
